<?xml version="1.0" encoding="UTF-8"?>
<svg version="1.1" xmlns="http://www.w3.org/2000/svg" width="450" height="453">
<path d="M0 0 C148.5 0 297 0 450 0 C450 149.49 450 298.98 450 453 C301.5 453 153 453 0 453 C0 303.51 0 154.02 0 0 Z " fill="#FDFAED" transform="translate(0,0)"/>
<path d="M0 0 C0.33 1.32 0.66 2.64 1 4 C-2.60214508 6.40143005 -5.17634652 6.27696796 -9.33449078 6.24609566 C-10.09096697 6.24840335 -10.84744317 6.25071103 -11.62684289 6.25308865 C-14.18219823 6.25841645 -16.73730561 6.24938163 -19.29264832 6.24050903 C-21.13489905 6.24138053 -22.97714954 6.24313048 -24.8193987 6.24568737 C-29.89775405 6.25017584 -34.97602562 6.24213668 -40.05437028 6.23213124 C-45.52471634 6.22352058 -50.9950574 6.22641521 -56.46540833 6.22793579 C-65.94847426 6.22898616 -75.43151274 6.22269375 -84.91457176 6.21146011 C-98.62559943 6.19522857 -112.33661378 6.18999951 -126.04765002 6.18748413 C-148.29113244 6.18310334 -170.53460204 6.16980096 -192.77807617 6.15087891 C-214.38972904 6.13251552 -236.001378 6.11834561 -257.61303711 6.10986328 C-258.27899147 6.10960023 -258.94494583 6.10933718 -259.63108062 6.10906615 C-266.98234375 6.1061675 -274.33360693 6.1033838 -281.68487012 6.10064721 C-337.12325686 6.07990275 -392.56162773 6.04466677 -448 6 C-448 4.35 -448 2.7 -448 1 C-447.23747295 1.48712716 -447.23747295 1.48712716 -446.45954132 1.98409528 C-443.18382594 3.33711777 -440.13258241 3.2765463 -436.64733887 3.25447559 C-435.90103745 3.25768207 -435.15473604 3.26088855 -434.38581944 3.26419219 C-431.87106803 3.2725305 -429.35655242 3.2665546 -426.84179688 3.26069641 C-425.02628166 3.26371534 -423.21076772 3.26760352 -421.39525604 3.27228898 C-416.39530164 3.28261089 -411.3954186 3.28037653 -406.39545822 3.27610838 C-401.00752734 3.27364877 -395.61961398 3.28264573 -390.23168945 3.29014587 C-379.67237412 3.30291584 -369.11308419 3.30468374 -358.55376244 3.30234561 C-349.97455944 3.300565 -341.39536418 3.30230655 -332.81616211 3.30657005 C-331.59670002 3.30716524 -330.37723792 3.30776043 -329.12082243 3.30837366 C-326.64377149 3.30958536 -324.16672055 3.3107995 -321.68966961 3.31201603 C-298.44385359 3.32290023 -275.19805206 3.3207248 -251.95223522 3.31463119 C-230.66736843 3.30946013 -209.38254737 3.32072089 -188.09768963 3.33972941 C-166.26117971 3.35908166 -144.42469147 3.36736848 -122.58817291 3.36360615 C-110.32105505 3.36169027 -98.05397613 3.36421927 -85.78686523 3.37832069 C-75.34497098 3.39020215 -64.90313965 3.39167581 -54.46124458 3.37953053 C-49.13017885 3.37361928 -43.79922839 3.37260411 -38.46817017 3.38453293 C-33.59279865 3.39531568 -28.71763973 3.3923799 -23.84227848 3.37827124 C-22.07383264 3.3756032 -20.30537055 3.37805617 -18.53694057 3.38600711 C-16.1419202 3.39603204 -13.74765051 3.38776157 -11.35266113 3.37473011 C-10.31127031 3.38569413 -10.31127031 3.38569413 -9.24884129 3.39687964 C-5.21662389 3.35107957 -2.93981869 2.81791111 0 0 Z " fill="#E5E5E5" transform="translate(448,447)"/>
<path d="M0 0 C0.97582031 0.24427734 1.95164063 0.48855469 2.95703125 0.74023438 C8.60174896 2.26115081 12.33939836 3.5401965 15.875 8.3125 C15.875 11.27388992 15.39309989 12.65675566 13.56640625 14.96875 C11.875 16.3125 11.875 16.3125 9.96484375 16.4921875 C4.06819832 15.65745366 -1.47404328 14.1882873 -7.125 12.3125 C-7.125 11.6525 -7.125 10.9925 -7.125 10.3125 C-5.84625 10.456875 -4.5675 10.60125 -3.25 10.75 C1.78780884 11.31064645 6.83036879 11.81751531 11.875 12.3125 C11.38 9.8375 11.38 9.8375 10.875 7.3125 C6.98468907 6.10636497 3.08704317 4.92591049 -0.8125 3.75 C-1.91529297 3.40775391 -3.01808594 3.06550781 -4.15429688 2.71289062 C-5.22099609 2.39384766 -6.28769531 2.07480469 -7.38671875 1.74609375 C-8.36600342 1.44759521 -9.34528809 1.14909668 -10.35424805 0.84155273 C-15.48525316 -0.1381713 -20.04785929 1.84390039 -24.9375 3.375 C-26.09894531 3.73722656 -27.26039063 4.09945312 -28.45703125 4.47265625 C-29.33746094 4.74980469 -30.21789062 5.02695313 -31.125 5.3125 C-29.91623522 11.32011181 -29.91623522 11.32011181 -28 17.125 C-27.125 19.3125 -27.125 19.3125 -27.125 23.3125 C-25.40603516 22.98958984 -25.40603516 22.98958984 -23.65234375 22.66015625 C-18.84546115 22.06048575 -15.19543584 23.16747074 -10.6875 24.75 C-3.24347414 27.33654171 2.77446741 29.20873961 10.23852539 25.75708008 C14.14774433 23.65692862 17.91465522 21.33333629 21.6875 19 C23.00870631 18.20461792 24.33096553 17.41098209 25.65429688 16.61914062 C32.95583484 12.25279757 32.95583484 12.25279757 39.875 7.3125 C39.38 4.8375 39.38 4.8375 38.875 2.3125 C35.45419879 1.15750623 34.18822206 1.16321104 30.8671875 2.74609375 C29.32417969 3.73802734 29.32417969 3.73802734 27.75 4.75 C22.15875734 8.3125 22.15875734 8.3125 18.875 8.3125 C20.47195515 3.52163455 24.46266568 2.17392457 28.71875 -0.22265625 C32.95871827 -2.19046331 35.29903502 -2.51949363 39.875 -1.6875 C41.875 -0.625 41.875 -0.625 42.875 1.3125 C43.3125 4.75 43.3125 4.75 42.875 8.3125 C40.12132077 11.59641065 36.95599251 13.66060952 33.296875 15.84375 C32.21792969 16.48957031 31.13898438 17.13539063 30.02734375 17.80078125 C28.34318359 18.79658203 28.34318359 18.79658203 26.625 19.8125 C25.51769531 20.47636719 24.41039062 21.14023438 23.26953125 21.82421875 C5.42149321 32.45664093 5.42149321 32.45664093 -5.125 30.3125 C-8.73482211 29.37386803 -12.30089739 28.35486706 -15.86328125 27.25 C-18.94766953 26.36346924 -21.95214872 25.77330745 -25.125 25.3125 C-25.455 26.9625 -25.785 28.6125 -26.125 30.3125 C-29.425 30.9725 -32.725 31.6325 -36.125 32.3125 C-35.795 31.3225 -35.465 30.3325 -35.125 29.3125 C-31.5625 28.125 -31.5625 28.125 -28.125 27.3125 C-29.43281391 23.49837604 -30.74703015 19.68648957 -32.0625 15.875 C-32.43568359 14.78638672 -32.80886719 13.69777344 -33.19335938 12.57617188 C-33.72993164 11.02446289 -33.72993164 11.02446289 -34.27734375 9.44140625 C-34.60726318 8.48306885 -34.93718262 7.52473145 -35.27709961 6.53735352 C-35.92834076 4.37284752 -35.92834076 4.37284752 -37.125 3.3125 C-39.04639613 3.63993697 -39.04639613 3.63993697 -41.1875 4.25 C-41.92097656 4.44464844 -42.65445313 4.63929688 -43.41015625 4.83984375 C-43.97605469 4.99582031 -44.54195312 5.15179688 -45.125 5.3125 C-45.125 4.3225 -45.125 3.3325 -45.125 2.3125 C-40.175 0.8275 -40.175 0.8275 -35.125 -0.6875 C-34.795 0.3025 -34.465 1.2925 -34.125 2.3125 C-32.02069999 1.66710128 -29.91656446 1.02116624 -27.8125 0.375 C-26.05486328 -0.16447266 -26.05486328 -0.16447266 -24.26171875 -0.71484375 C-15.18299567 -3.53003933 -9.07502376 -2.4711616 0 0 Z " fill="#84B6CE" transform="translate(225.125,170.6875)"/>
<path d="M0 0 C0.66 0.33 1.32 0.66 2 1 C1.68151851 3.97249386 0.96374181 5.03839103 -1.125 7.25 C-4 9 -4 9 -11 9 C-11 13.95 -11 18.9 -11 24 C-10.01 23.34 -9.02 22.68 -8 22 C-4.57982443 21.60041513 -1.12706959 21.4364652 2 23 C1.68151851 25.97249386 0.96374181 27.03839103 -1.125 29.25 C-4.6525032 31.39717586 -6.9410184 31.3183515 -11 31 C-9.51451481 34.78798723 -8.34037591 37.583985 -5.75 40.75 C-5.1725 41.4925 -4.595 42.235 -4 43 C-4.33 43.99 -4.66 44.98 -5 46 C-9.95 46 -14.9 46 -20 46 C-20 42 -20 42 -17.55078125 39.3671875 C-13.99942822 35.3861646 -14.22227602 31.25639472 -14.1875 26.125 C-14.16236328 25.24585938 -14.13722656 24.36671875 -14.11132812 23.4609375 C-14.05281805 21.3077668 -14.02345764 19.15383779 -14 17 C-15.62615234 17.07734375 -15.62615234 17.07734375 -17.28515625 17.15625 C-22.39426047 16.94135603 -23.4595394 15.4541079 -27 12 C-26.67 10.68 -26.34 9.36 -26 8 C-24.741875 7.95875 -23.48375 7.9175 -22.1875 7.875 C-21.47980469 7.85179688 -20.77210938 7.82859375 -20.04296875 7.8046875 C-18 8 -18 8 -15 10 C-14.79375 9.0925 -14.5875 8.185 -14.375 7.25 C-11.58722087 0.66070387 -6.77052957 -0.65101246 0 0 Z " fill="#7FB4CD" transform="translate(264,120)"/>
<path d="M0 0 C3.4375 2 3.4375 2 6 4 C6.47308594 3.69964844 6.94617188 3.39929688 7.43359375 3.08984375 C12.96651101 -0.09185331 16.80493122 -0.3193202 23 1 C22.41684026 3.89150037 22.030207 4.96601713 20 7.25 C15.93075448 9.62372655 12.59948687 9.36074407 8 9 C8.9037929 16.31316204 8.9037929 16.31316204 12.6875 22.4375 C13.450625 23.283125 14.21375 24.12875 15 25 C14.67 25.99 14.34 26.98 14 28 C9.05 28 4.1 28 -1 28 C-1 23.36981579 -0.11180733 23.01498743 2.8203125 19.79296875 C4.9645483 16.53401434 4.90684559 12.81086214 5 9 C3.96875 9.2475 2.9375 9.495 1.875 9.75 C-2 10 -2 10 -5.375 8.375 C-8.19733599 5.82145791 -8.79290782 4.72765925 -9 1 C-5.89046621 -0.5547669 -3.43733239 -0.28644437 0 0 Z " fill="#8CBBD0" transform="translate(225,138)"/>
<path d="M0 0 C0.66 0 1.32 0 2 0 C2 1.32 2 2.64 2 4 C3.65 4 5.3 4 7 4 C7 4.66 7 5.32 7 6 C5.02 6 3.04 6 1 6 C0.01 9.96 -0.98 13.92 -2 18 C2.19174654 16.95206337 3.21592961 16.08236365 6 13 C4.73058503 16.91402949 3.48832306 18.79072873 0 21 C-0.61875 20.67 -1.2375 20.34 -1.875 20 C-3.91018344 18.85806765 -3.91018344 18.85806765 -6 19 C-6.66 19.66 -7.32 20.32 -8 21 C-9.32 21 -10.64 21 -12 21 C-11.125 14.25 -11.125 14.25 -10 12 C-13.40451771 13.13483924 -13.6005564 13.55277937 -15.1875 16.5625 C-15.785625 17.696875 -16.38375 18.83125 -17 20 C-21.66666667 20 -26.33333333 20 -31 20 C-32.66965451 20.31802943 -34.33678518 20.64984951 -36 21 C-36 18.03 -36 15.06 -36 12 C-38.83328987 14.83328987 -39.7191375 16.35446828 -41 20 C-41.66 20 -42.32 20 -43 20 C-43 17.36 -43 14.72 -43 12 C-45.32472205 14.85306797 -46.7508258 17.54074837 -48 21 C-48.66 21 -49.32 21 -50 21 C-49.14285714 12.42857143 -49.14285714 12.42857143 -47 9 C-43 9 -43 9 -40.5625 9.5625 C-37.73923691 10.04452053 -35.75348568 9.70803917 -33 9 C-33.33 12.3 -33.66 15.6 -34 19 C-31.2573615 16.3357226 -28.73008248 13.70114658 -26.375 10.6875 C-25.59125 9.800625 -24.8075 8.91375 -24 8 C-23.01 8 -22.02 8 -21 8 C-20.15901344 12.01804691 -19.94595055 15.01803543 -21 19 C-16.82049923 15.54110281 -15.67237866 12.01713599 -14 7 C-13.01 7 -12.02 7 -11 7 C-11 7.99 -11 8.98 -11 10 C-10.01 10.33 -9.02 10.66 -8 11 C-8.52268466 13.76276177 -9.10869587 16.3260876 -10 19 C-4.65326391 15.67635324 -3.52450179 11.80054339 -2 6 C-3.65 6 -5.3 6 -7 6 C-7 5.34 -7 4.68 -7 4 C-5.02 4 -3.04 4 -1 4 C-0.67 2.68 -0.34 1.36 0 0 Z " fill="#272B37" transform="translate(165,287)"/>
<path d="M0 0 C11.73417302 -0.55485582 11.73417302 -0.55485582 16 3 C17.56033623 4.56033623 17.20707559 6.08947136 17.25 8.25 C17.21132685 12.29779013 16.61748921 14.77847482 14 18 C11.23547967 19.38226016 8.9538637 19.09525387 5.875 19.0625 C4.77929688 19.05347656 3.68359375 19.04445313 2.5546875 19.03515625 C1.29011719 19.01775391 1.29011719 19.01775391 0 19 C0 18.34 0 17.68 0 17 C0.66 17 1.32 17 2 17 C2 12.05 2 7.1 2 2 C1.34 2 0.68 2 0 2 C0 1.34 0 0.68 0 0 Z " fill="#333741" transform="translate(87,245)"/>
<path d="M0 0 C0.66 0 1.32 0 2 0 C2.22142255 1.95689659 2.4267568 3.91561952 2.625 5.875 C2.74101562 6.96554687 2.85703125 8.05609375 2.9765625 9.1796875 C2.98816406 10.57574219 2.98816406 10.57574219 3 12 C2.34 12.66 1.68 13.32 1 14 C-1.125 13.625 -1.125 13.625 -3 13 C-3 12.01 -3 11.02 -3 10 C-2.34 10 -1.68 10 -1 10 C-1 10.66 -1 11.32 -1 12 C-0.34 12 0.32 12 1 12 C0.505 9.03 0.505 9.03 0 6 C-0.66 6 -1.32 6 -2 6 C-2.20625 6.5775 -2.4125 7.155 -2.625 7.75 C-4.55027866 10.90045599 -6.77851354 12.26039731 -10 14 C-12.375 13.75 -12.375 13.75 -14 13 C-14.33 11.35 -14.66 9.7 -15 8 C-16.65 8 -18.3 8 -20 8 C-20.268125 8.61875 -20.53625 9.2375 -20.8125 9.875 C-22 12 -22 12 -25 14 C-25.99 13.01 -26.98 12.02 -28 11 C-28.4125 11.515625 -28.825 12.03125 -29.25 12.5625 C-30.11625 13.2740625 -30.11625 13.2740625 -31 14 C-33.1875 13.6875 -33.1875 13.6875 -35 13 C-35 10.36 -35 7.72 -35 5 C-37.46278801 7.46278801 -37.99771255 9.70676982 -39 13 C-39.66 13 -40.32 13 -41 13 C-40.85892253 11.54119891 -40.71197585 10.08296449 -40.5625 8.625 C-40.48128906 7.81289063 -40.40007812 7.00078125 -40.31640625 6.1640625 C-40 4 -40 4 -39 2 C-36.33333333 2 -33.66666667 2 -31 2 C-31 4.97 -31 7.94 -31 11 C-27.89448334 7.89448334 -27.18676066 6.10801767 -26 2 C-25.34 2 -24.68 2 -24 2 C-24.33 4.97 -24.66 7.94 -25 11 C-21.92067986 8.32973577 -21.92067986 8.32973577 -21 5.375 C-20.67 4.59125 -20.34 3.8075 -20 3 C-19.01 2.67 -18.02 2.34 -17 2 C-17.33 3.65 -17.66 5.3 -18 7 C-16.05000871 6.80528889 -16.05000871 6.80528889 -14 6 C-13.690625 5.34 -13.38125 4.68 -13.0625 4 C-12.5365625 3.01 -12.5365625 3.01 -12 2 C-9.375 1.25 -9.375 1.25 -7 1 C-7.34778436 4.21700528 -7.50072404 5.59150148 -10.0625 7.6875 C-10.701875 8.120625 -11.34125 8.55375 -12 9 C-12 9.66 -12 10.32 -12 11 C-8.57221614 10.71435135 -7.27757653 10.29390456 -4.875 7.75 C-2.97254768 5.03303011 -2.97254768 5.03303011 -1.375 2.1875 C-0.92125 1.465625 -0.4675 0.74375 0 0 Z " fill="#232734" transform="translate(249,294)"/>
<path d="M0 0 C0 3.63 0 7.26 0 11 C-1.65 11 -3.3 11 -5 11 C-7.39952133 12.3688208 -7.39952133 12.3688208 -9.6875 14.25 C-20.95671887 22.48200671 -35.11248629 25.86396975 -49 25 C-45.9620887 23.22853254 -42.93702247 22.45587261 -39.51757812 21.70776367 C-27.7324836 19.11421294 -18.72952705 14.45438436 -10 6 C-10.495 4.02 -10.495 4.02 -11 2 C-6.9402698 0.48940272 -4.45389333 0 0 0 Z " fill="#7DB2CC" transform="translate(250,110)"/>
<path d="M0 0 C0.99 0 1.98 0 3 0 C3 0.99 3 1.98 3 3 C3.99 3 4.98 3 6 3 C6.20140476 6.62528568 5.85776765 8.86501708 4 12 C6.63684916 9.50568323 8.78286277 7.4071323 10.5 4.1875 C10.995 3.465625 11.49 2.74375 12 2 C14.6875 1.6875 14.6875 1.6875 17 2 C17.33 3.32 17.66 4.64 18 6 C21.27773504 5.24849977 21.27773504 5.24849977 23 2 C23.66 2.33 24.32 2.66 25 3 C24.34 5.97 23.68 8.94 23 12 C26.09183715 10.38532348 26.09183715 10.38532348 26.625 8.08984375 C26.87544037 6.6524204 27.12543884 5.21492 27.375 3.77734375 C27.684375 2.89755859 27.684375 2.89755859 28 2 C28.99 1.67 29.98 1.34 31 1 C30.67 4.3 30.34 7.6 30 11 C33.10551666 7.89448334 33.81323934 6.10801767 35 2 C35.66 2 36.32 2 37 2 C37 3.32 37 4.64 37 6 C38.65 5.67 40.3 5.34 42 5 C42 5.66 42 6.32 42 7 C39.69 7.33 37.38 7.66 35 8 C34.34 9.65 33.68 11.3 33 13 C31.63875 12.690625 31.63875 12.690625 30.25 12.375 C26.88972103 11.9872755 25.75924185 12.19588033 23 14 C20.8614515 11.8614515 20.57344937 10.86724686 20 8 C18.29159719 9.63412443 17.06546953 10.86906094 16 13 C14.02 13 12.04 13 10 13 C10 12.34 10 11.68 10 11 C9.4225 11.515625 8.845 12.03125 8.25 12.5625 C6 14 6 14 3.75 13.6875 C3.1725 13.460625 2.595 13.23375 2 13 C2.875 7.25 2.875 7.25 4 5 C3.01 5 2.02 5 1 5 C0.5978125 6.1446875 0.5978125 6.1446875 0.1875 7.3125 C-0.9612484 9.91229902 -1.9685876 11.10215992 -4 13 C-3.52343588 11.20763933 -3.04366502 9.41613103 -2.5625 7.625 C-2.29566406 6.62726563 -2.02882813 5.62953125 -1.75390625 4.6015625 C-1 2 -1 2 0 0 Z " fill="#1A1F2C" transform="translate(307,294)"/>
<path d="M0 0 C5.19701528 -0.36470283 9.1264674 -0.30199924 13.609375 2.53515625 C15.87396772 4.92061206 16.01114836 7.57934717 16.46484375 10.75 C17.07081032 13.29771348 17.93283019 14.46255334 19.6875 16.375 C20.450625 17.24125 21.21375 18.1075 22 19 C21.67 19.99 21.34 20.98 21 22 C16.05 22 11.1 22 6 22 C6 16.89701637 7.73090574 15.7474983 11 12 C11.33 11.01 11.66 10.02 12 9 C10.96875 9.103125 9.9375 9.20625 8.875 9.3125 C3.84276284 8.90667442 2.53655291 7.45029552 -1 4 C-0.67 2.68 -0.34 1.36 0 0 Z " fill="#7FB4CD" transform="translate(198,144)"/>
<path d="M0 0 C0.99773437 0.02320313 1.99546875 0.04640625 3.0234375 0.0703125 C4.52777344 0.09738281 4.52777344 0.09738281 6.0625 0.125 C6.83335937 0.14820313 7.60421875 0.17140625 8.3984375 0.1953125 C8.3984375 1.1853125 8.3984375 2.1753125 8.3984375 3.1953125 C7.7384375 3.1953125 7.0784375 3.1953125 6.3984375 3.1953125 C6.2540625 3.9996875 6.1096875 4.8040625 5.9609375 5.6328125 C5.3984375 8.1953125 5.3984375 8.1953125 4.3984375 9.1953125 C2.39885386 9.23612033 0.39798496 9.23785606 -1.6015625 9.1953125 C-1.6015625 10.1853125 -1.6015625 11.1753125 -1.6015625 12.1953125 C-0.3021875 12.1746875 0.9971875 12.1540625 2.3359375 12.1328125 C3.69009383 12.11131796 5.04599833 12.12383051 6.3984375 12.1953125 C7.3984375 13.1953125 7.3984375 13.1953125 7.6484375 15.6328125 C7.5246875 16.90125 7.5246875 16.90125 7.3984375 18.1953125 C3.32994341 20.90764189 1.23366966 20.50231137 -3.6015625 20.1953125 C-4.2615625 19.5353125 -4.9215625 18.8753125 -5.6015625 18.1953125 C-5.578125 16.0234375 -5.578125 16.0234375 -5.2265625 13.4453125 C-4.84926854 10.44430765 -4.60984054 7.73174236 -4.6640625 4.6953125 C-4.57370217 1.08089936 -3.55969524 0.26724439 0 0 Z " fill="#242935" transform="translate(240.6015625,249.8046875)"/>
<path d="M0 0 C1.65 0.33 3.3 0.66 5 1 C4.85866501 2.77119803 4.71176792 4.54195287 4.5625 6.3125 C4.48128906 7.29863281 4.40007812 8.28476562 4.31640625 9.30078125 C4 12 4 12 3 15 C3.99 15.33 4.98 15.66 6 16 C5.07767578 16.12375 5.07767578 16.12375 4.13671875 16.25 C1.86747621 16.80866381 1.86747621 16.80866381 0.76953125 18.8125 C0.45371094 19.534375 0.13789063 20.25625 -0.1875 21 C-1.96440129 24.96440129 -1.96440129 24.96440129 -3 26 C-5.875 26.3125 -5.875 26.3125 -9 26 C-10.9375 24.25 -10.9375 24.25 -12 22 C-12 19.9375 -12 19.9375 -11 18 C-6.97058163 14.7764653 -5.52855852 15 0 15 C0.33 11.04 0.66 7.08 1 3 C0.34 6.3 -0.32 9.6 -1 13 C-1.66 13 -2.32 13 -3 13 C-4.42662219 10.14675563 -4.31033868 8.16545451 -4 5 C-2 2.125 -2 2.125 0 0 Z " fill="#343842" transform="translate(202,286)"/>
<path d="M0 0 C2.375 1.625 2.375 1.625 4 4 C4.48288863 7.31123632 4.29618989 9.296549 3 12.375 C0.70763405 14.23754733 -0.1789006 14.31713197 -3.0625 14.4375 C-4.361875 14.293125 -5.66125 14.14875 -7 14 C-9.54014875 10.18977687 -9.58606955 7.46529184 -9 3 C-6.89524812 -0.74178112 -4.00297686 -0.57185384 0 0 Z " fill="#2B2F3A" transform="translate(204,250)"/>
<path d="M0 0 C2.64 0 5.28 0 8 0 C7.67 0.66 7.34 1.32 7 2 C6.95977609 4.3329866 6.95679753 6.66706666 7 9 C7.845625 8.071875 8.69125 7.14375 9.5625 6.1875 C10.03816406 5.66542969 10.51382813 5.14335937 11.00390625 4.60546875 C11.33261719 4.07566406 11.66132812 3.54585937 12 3 C11.67 2.01 11.34 1.02 11 0 C13.31 0 15.62 0 18 0 C16.7934375 1.11375 16.7934375 1.11375 15.5625 2.25 C12.55039237 5.19689664 12.55039237 5.19689664 12 9 C14.07676009 13.79722012 14.07676009 13.79722012 18 17 C18 17.66 18 18.32 18 19 C15.8125 19.5 15.8125 19.5 13 19 C10.98728161 16.51946058 9.48112914 13.82359938 8 11 C7.34 12.98 6.68 14.96 6 17 C6.99 17 7.98 17 9 17 C9 17.66 9 18.32 9 19 C6.03 19 3.06 19 0 19 C0 18.34 0 17.68 0 17 C0.99 17 1.98 17 3 17 C3 12.05 3 7.1 3 2 C2.01 2 1.02 2 0 2 C0 1.34 0 0.68 0 0 Z " fill="#191D2B" transform="translate(67,245)"/>
<path d="M0 0 C2.18213746 1.61999432 2.91472661 2.48560889 3.36328125 5.19140625 C3.34652344 5.97386719 3.32976562 6.75632812 3.3125 7.5625 C3.30863281 8.34753906 3.30476562 9.13257813 3.30078125 9.94140625 C3 12 3 12 1 14 C-0.875 14.265625 -0.875 14.265625 -3 14.25 C-3.70125 14.25515625 -4.4025 14.2603125 -5.125 14.265625 C-7 14 -7 14 -9 12 C-9.30078125 9.94140625 -9.30078125 9.94140625 -9.3125 7.5625 C-9.32925781 6.78003906 -9.34601563 5.99757812 -9.36328125 5.19140625 C-8.47678925 -0.15614227 -4.81976862 -0.60247108 0 0 Z " fill="#232733" transform="translate(229,250)"/>
<path d="M0 0 C2.875 0.25 2.875 0.25 3.875 1.25 C3.91592937 3.58297433 3.91741723 5.91705225 3.875 8.25 C1.895 9.24 1.895 9.24 -0.125 10.25 C-0.125 7.41032769 0.27767181 5.01264289 0.875 2.25 C-2.9730063 3.7095886 -4.33706544 5.58899114 -6.125 9.25 C-7.64374812 14.0823804 -7.21262552 19.23587301 -7.125 24.25 C-5.16797448 24.02193712 -5.16797448 24.02193712 -3.125 23.25 C-1.33228609 19.76202512 -1.33228609 19.76202512 -0.125 16.25 C-1.775 16.25 -3.425 16.25 -5.125 16.25 C-4.795 15.59 -4.465 14.93 -4.125 14.25 C-1.485 14.25 1.155 14.25 3.875 14.25 C2.50970846 19.46293135 0.73006058 22.57016945 -3.125 26.25 C-6.3125 26.8125 -6.3125 26.8125 -9.125 26.25 C-12.2546109 21.55558366 -11.82017299 16.7418666 -11.125 11.25 C-9.04777617 6.21672687 -5.72653768 0.45812301 0 0 Z " fill="#252935" transform="translate(299.125,285.75)"/>
<path d="M0 0 C0.33 0 0.66 0 1 0 C1.33 5.94 1.66 11.88 2 18 C2.66 18 3.32 18 4 18 C5.54296875 19.64453125 5.54296875 19.64453125 7.1875 21.8125 C7.73792969 22.52019531 8.28835938 23.22789062 8.85546875 23.95703125 C9.23316406 24.63121094 9.61085938 25.30539063 10 26 C9.67 26.99 9.34 27.98 9 29 C4.05 29 -0.9 29 -6 29 C-6 25 -6 25 -3.55078125 22.3671875 C0.00057178 18.3861646 -0.22227602 14.25639472 -0.1875 9.125 C-0.16236328 8.24585938 -0.13722656 7.36671875 -0.11132812 6.4609375 C-0.05281805 4.3077668 -0.02345764 2.15383779 0 0 Z " fill="#86B7CF" transform="translate(250,137)"/>
<path d="M0 0 C4 0 4 0 6.4375 0.5625 C9.26076309 1.04452053 11.24651432 0.70803917 14 0 C13.67 3.3 13.34 6.6 13 10 C13.763125 9.236875 14.52625 8.47375 15.3125 7.6875 C18.15625 4.84375 18.15625 4.84375 21 2 C20.67 4.31 20.34 6.62 20 9 C20.99 9.33 21.98 9.66 23 10 C18.25 11 18.25 11 16 11 C14.33034549 11.31802943 12.66321482 11.64984951 11 12 C11 9.03 11 6.06 11 3 C8.16671013 5.83328987 7.2808625 7.35446828 6 11 C5.34 11 4.68 11 4 11 C4 8.36 4 5.72 4 3 C1.67527795 5.85306797 0.2491742 8.54074837 -1 12 C-1.66 12 -2.32 12 -3 12 C-2.14285714 3.42857143 -2.14285714 3.42857143 0 0 Z " fill="#373B45" transform="translate(118,296)"/>
<path d="M0 0 C1.65 0 3.3 0 5 0 C5 2.64 5 5.28 5 8 C6.11375 7.79375 7.2275 7.5875 8.375 7.375 C10.169375 7.189375 10.169375 7.189375 12 7 C14 9 14 9 14.1953125 11.3828125 C14.16050781 12.74019531 14.16050781 12.74019531 14.125 14.125 C14.10695312 15.03507812 14.08890625 15.94515625 14.0703125 16.8828125 C14.03550781 17.93082031 14.03550781 17.93082031 14 19 C14.66 19 15.32 19 16 19 C16 19.66 16 20.32 16 21 C13.69 21 11.38 21 9 21 C9 20.34 9 19.68 9 19 C9.66 19 10.32 19 11 19 C10.67 16.03 10.34 13.06 10 10 C8.68 10 7.36 10 6 10 C5.9729957 11.45823212 5.95360213 12.91660675 5.9375 14.375 C5.92589844 15.18710937 5.91429687 15.99921875 5.90234375 16.8359375 C5.85533666 19.04937142 5.85533666 19.04937142 7 21 C4.69 21 2.38 21 0 21 C0 20.34 0 19.68 0 19 C0.66 19 1.32 19 2 19 C2 13.39 2 7.78 2 2 C1.34 2 0.68 2 0 2 C0 1.34 0 0.68 0 0 Z " fill="#161B28" transform="translate(159,243)"/>
<path d="M0 0 C0.33 0 0.66 0 1 0 C1 2.64 1 5.28 1 8 C1.66 8 2.32 8 3 8 C4.54296875 9.64453125 4.54296875 9.64453125 6.1875 11.8125 C6.73792969 12.52019531 7.28835937 13.22789062 7.85546875 13.95703125 C8.23316406 14.63121094 8.61085937 15.30539063 9 16 C8.67 16.99 8.34 17.98 8 19 C3.05 19 -1.9 19 -7 19 C-7 15 -7 15 -5.72265625 13.359375 C-5.17480469 12.82828125 -4.62695312 12.2971875 -4.0625 11.75 C-0.53769083 7.92661875 -0.17976898 5.123416 0 0 Z " fill="#7FB3CD" transform="translate(231,147)"/>
<path d="M0 0 C5.28 0 10.56 0 16 0 C16 1.98 16 3.96 16 6 C15.34 6 14.68 6 14 6 C14 4.68 14 3.36 14 2 C12.68 2 11.36 2 10 2 C10 6.95 10 11.9 10 17 C10.99 17 11.98 17 13 17 C13 17.66 13 18.32 13 19 C9.7 19 6.4 19 3 19 C3 18.34 3 17.68 3 17 C3.99 17 4.98 17 6 17 C6 12.05 6 7.1 6 2 C4.68 2 3.36 2 2 2 C2 3.32 2 4.64 2 6 C1.34 6 0.68 6 0 6 C0 4.02 0 2.04 0 0 Z " fill="#242834" transform="translate(114,245)"/>
<path d="M0 0 C0.66 0.66 1.32 1.32 2 2 C1.625 5.125 1.625 5.125 1 8 C0.01 7.67 -0.98 7.34 -2 7 C-1.67 5.02 -1.34 3.04 -1 1 C-2.98 1.99 -4.96 2.98 -7 4 C-6.61892278 7.33442572 -6.22336885 8.76349181 -3.875 11.25 C-1.45370828 14.80122786 -1.83288921 16.78182295 -2.34765625 20.9140625 C-3.11926708 23.38136899 -3.95621872 24.43538275 -6 26 C-9.0625 26.375 -9.0625 26.375 -12 26 C-14 23 -14 23 -13.625 20.8125 C-13.41875 20.214375 -13.2125 19.61625 -13 19 C-12.34 19 -11.68 19 -11 19 C-10.67 20.32 -10.34 21.64 -10 23 C-8.68 23 -7.36 23 -6 23 C-5.57611241 16.74765804 -5.98514618 14.89310309 -10 10 C-10.42008548 6.51929175 -10.64483445 4.17587459 -8.9375 1.0625 C-5.92115289 -0.59162584 -3.36333392 -0.30575763 0 0 Z " fill="#30343F" transform="translate(114,286)"/>
<path d="M0 0 C1.95803507 -0.05389087 3.91648909 -0.09274217 5.875 -0.125 C7.51082031 -0.15980469 7.51082031 -0.15980469 9.1796875 -0.1953125 C12 0 12 0 14 2 C14.37890625 4.3125 14.37890625 4.3125 14.5625 7 C14.77217523 10.63718775 14.77217523 10.63718775 16 14 C13.69 14 11.38 14 9 14 C9.33 13.34 9.66 12.68 10 12 C10.06950541 10.45976004 10.08452357 8.91665012 10.0625 7.375 C10.05347656 6.55773437 10.04445313 5.74046875 10.03515625 4.8984375 C10.02355469 4.27195313 10.01195312 3.64546875 10 3 C9.01 3 8.02 3 7 3 C7 6.63 7 10.26 7 14 C4.69 14 2.38 14 0 14 C0.33 13.34 0.66 12.68 1 12 C1.22622081 10.29636178 1.40888473 8.58671299 1.5625 6.875 C1.64628906 5.96492187 1.73007812 5.05484375 1.81640625 4.1171875 C1.87699219 3.41851562 1.93757813 2.71984375 2 2 C1.34 2 0.68 2 0 2 C0 1.34 0 0.68 0 0 Z " fill="#343842" transform="translate(291,250)"/>
<path d="M0 0 C1.95803507 -0.05389087 3.91648909 -0.09274217 5.875 -0.125 C7.51082031 -0.15980469 7.51082031 -0.15980469 9.1796875 -0.1953125 C12 0 12 0 14 2 C14.1953125 4.6015625 14.1953125 4.6015625 14.125 7.625 C14.10695312 8.62789063 14.08890625 9.63078125 14.0703125 10.6640625 C14.03550781 11.82035156 14.03550781 11.82035156 14 13 C14.66 13.33 15.32 13.66 16 14 C13.69 14 11.38 14 9 14 C9.33 10.04 9.66 6.08 10 2 C8.68 2.33 7.36 2.66 6 3 C5.9729957 4.45823212 5.95360213 5.91660675 5.9375 7.375 C5.92589844 8.18710937 5.91429687 8.99921875 5.90234375 9.8359375 C5.85533666 12.04937142 5.85533666 12.04937142 7 14 C4.69 14 2.38 14 0 14 C0 13.34 0 12.68 0 12 C0.66 12 1.32 12 2 12 C2 8.7 2 5.4 2 2 C1.34 2 0.68 2 0 2 C0 1.34 0 0.68 0 0 Z " fill="#353943" transform="translate(177,250)"/>
<path d="M0 0 C6.46326465 -0.45356243 9.60931587 0.40621058 15 4 C15 5.98 15 7.96 15 10 C14.01 10.33 13.02 10.66 12 11 C12 10.34 12 9.68 12 9 C10.96875 9.103125 9.9375 9.20625 8.875 9.3125 C3.84276284 8.90667442 2.53655291 7.45029552 -1 4 C-0.67 2.68 -0.34 1.36 0 0 Z " fill="#82B5CD" transform="translate(198,144)"/>
<path d="M0 0 C2.31 0 4.62 0 7 0 C6.67 0.99 6.34 1.98 6 3 C6.27571139 5.00875442 6.60235737 7.01178687 7 9 C7.66 9 8.32 9 9 9 C9.93380961 4.46859347 9.93380961 4.46859347 9 0 C10.65 0 12.3 0 14 0 C11.94235079 6.45353615 9.57616518 12.7361263 7 19 C4.69 19.33 2.38 19.66 0 20 C0 19.34 0 18.68 0 18 C1.98 17.01 3.96 16.02 6 15 C5.71125 14.31292969 5.4225 13.62585938 5.125 12.91796875 C4.75375 12.01691406 4.3825 11.11585938 4 10.1875 C3.62875 9.29417969 3.2575 8.40085937 2.875 7.48046875 C2 5 2 5 2 2 C1.34 2 0.68 2 0 2 C0 1.34 0 0.68 0 0 Z " fill="#252936" transform="translate(332,250)"/>
<path d="M0 0 C1.828125 0.06640625 1.828125 0.06640625 4 1 C5.13273936 3.35788641 5.97142521 5.46711646 6.75 7.9375 C6.97042969 8.58396484 7.19085938 9.23042969 7.41796875 9.89648438 C9 14.6278387 9 14.6278387 9 17 C9.66 17 10.32 17 11 17 C11 17.66 11 18.32 11 19 C8.36 19 5.72 19 3 19 C3.66 17.02 4.32 15.04 5 13 C2.36 13 -0.28 13 -3 13 C-2.34 14.98 -1.68 16.96 -1 19 C-3.31 19 -5.62 19 -8 19 C-8 18.34 -8 17.68 -8 17 C-7.34 16.67 -6.68 16.34 -6 16 C-4.94647157 13.69034152 -3.94280904 11.3570226 -3 9 C-2.67 9.99 -2.34 10.98 -2 12 C-0.02 12 1.96 12 4 12 C3.67 11.2575 3.34 10.515 3 9.75 C2 7 2 7 2 3 C1.34 3 0.68 3 0 3 C0 2.01 0 1.02 0 0 Z " fill="#1E2330" transform="translate(279,245)"/>
<path d="M0 0 C5 0 5 0 6.8125 1.5625 C8.44489575 4.91320706 8.39469235 7.31620474 8 11 C6.8125 13.4375 6.8125 13.4375 5 15 C3.35 15 1.7 15 0 15 C0 10.05 0 5.1 0 0 Z " fill="#F4F2E6" transform="translate(93,247)"/>
<path d="M0 0 C3 -0.3125 3 -0.3125 6 0 C8 2 8 2 8.1953125 4.3828125 C8.17210937 5.28773438 8.14890625 6.19265625 8.125 7.125 C8.10695313 8.03507812 8.08890625 8.94515625 8.0703125 9.8828125 C8.04710937 10.58148438 8.02390625 11.28015625 8 12 C8.66 12 9.32 12 10 12 C10 12.66 10 13.32 10 14 C8.20866022 14.05391993 6.41686101 14.09275571 4.625 14.125 C3.62726563 14.14820313 2.62953125 14.17140625 1.6015625 14.1953125 C-1 14 -1 14 -3 12 C-2.46428571 8.46428571 -2.46428571 8.46428571 -1 7 C0.99958364 6.95919217 3.00045254 6.95745644 5 7 C4.67 5.68 4.34 4.36 4 3 C2.02 3 0.04 3 -2 3 C-1.34 2.01 -0.68 1.02 0 0 Z " fill="#1A1E2B" transform="translate(312,250)"/>
<path d="M0 0 C2.31 0 4.62 0 7 0 C6.67 0.99 6.34 1.98 6 3 C6.59793673 5.35188447 7.25881795 7.68925595 8 10 C9.77759876 5.03079316 9.77759876 5.03079316 9 0 C10.65 0 12.3 0 14 0 C11.94235079 6.45353615 9.57616518 12.7361263 7 19 C4.69 19.33 2.38 19.66 0 20 C0 19.34 0 18.68 0 18 C1.98 17.01 3.96 16.02 6 15 C5.18872921 12.87453041 4.37594602 10.74963805 3.5625 8.625 C3.11003906 7.44164062 2.65757812 6.25828125 2.19140625 5.0390625 C1.10728088 2.13963807 1.10728088 2.13963807 0 0 Z " fill="#1E222F" transform="translate(250,250)"/>
<path d="M0 0 C0.66 0 1.32 0 2 0 C1.67 3.3 1.34 6.6 1 10 C4.10551666 6.89448334 4.81323934 5.10801767 6 1 C6.66 1 7.32 1 8 1 C8 2.32 8 3.64 8 5 C9.65 4.67 11.3 4.34 13 4 C13 4.66 13 5.32 13 6 C10.69 6.33 8.38 6.66 6 7 C5.34 8.65 4.68 10.3 4 12 C2.63875 11.690625 2.63875 11.690625 1.25 11.375 C-2.11027897 10.9872755 -3.24075815 11.19588033 -6 13 C-7.97194115 11.02805885 -8.832365 9.49095467 -10 7 C-10.33 6.34 -10.66 5.68 -11 5 C-10.01 4.67 -9.02 4.34 -8 4 C-7.34 3.01 -6.68 2.02 -6 1 C-5.34 1.33 -4.68 1.66 -4 2 C-4.66 4.97 -5.32 7.94 -6 11 C-2.92365288 9.37674839 -2.92365288 9.37674839 -2.3046875 7.08984375 C-2.16289062 6.37957031 -2.02109375 5.66929687 -1.875 4.9375 C-1.07972665 1.07972665 -1.07972665 1.07972665 0 0 Z " fill="#3D414A" transform="translate(336,295)"/>
<path d="M0 0 C2 2 2 2 2 6 C-0.64 6 -3.28 6 -6 6 C-5.34 7.65 -4.68 9.3 -4 11 C-2.02 10.67 -0.04 10.34 2 10 C1.67 10.99 1.34 11.98 1 13 C-5.34507042 14.31690141 -5.34507042 14.31690141 -7.9375 13.0625 C-9.62822841 9.7804978 -9.54135705 6.60904698 -9 3 C-6.88804118 -0.75459346 -4.01124771 -0.42672848 0 0 Z " fill="#1A1E2C" transform="translate(141,250)"/>
<path d="M0 0 C0.66 0 1.32 0 2 0 C2.22142255 1.95689659 2.4267568 3.91561952 2.625 5.875 C2.79902344 7.51082031 2.79902344 7.51082031 2.9765625 9.1796875 C2.98429687 10.11039062 2.99203125 11.04109375 3 12 C2.34 12.66 1.68 13.32 1 14 C-1.125 13.625 -1.125 13.625 -3 13 C-3 12.01 -3 11.02 -3 10 C-2.34 10 -1.68 10 -1 10 C-1 10.66 -1 11.32 -1 12 C-0.34 12 0.32 12 1 12 C0.67 10.02 0.34 8.04 0 6 C-0.66 6 -1.32 6 -2 6 C-2.20625 6.5775 -2.4125 7.155 -2.625 7.75 C-4.55027866 10.90045599 -6.77851354 12.26039731 -10 14 C-12.29971238 13.81353683 -13.37457684 13.62542316 -15 12 C-15.04063832 10.33382885 -15.042721 8.66611905 -15 7 C-14.195625 6.731875 -13.39125 6.46375 -12.5625 6.1875 C-11.716875 5.795625 -10.87125 5.40375 -10 5 C-9.67 4.01 -9.34 3.02 -9 2 C-8.34 2 -7.68 2 -7 2 C-7.39598702 4.87090587 -7.7323843 5.78915127 -10.0625 7.625 C-10.701875 8.07875 -11.34125 8.5325 -12 9 C-12 9.66 -12 10.32 -12 11 C-8.57221614 10.71435135 -7.27757653 10.29390456 -4.875 7.75 C-2.97254768 5.03303011 -2.97254768 5.03303011 -1.375 2.1875 C-0.92125 1.465625 -0.4675 0.74375 0 0 Z " fill="#30343F" transform="translate(249,294)"/>
<path d="M0 0 C0.99 0 1.98 0 3 0 C3 1.32 3 2.64 3 4 C4.65 4 6.3 4 8 4 C8 4.66 8 5.32 8 6 C7.071875 6 6.14375 6 5.1875 6 C1.96584556 6.62702822 1.96584556 6.62702822 0.93359375 8.7421875 C-0.29113968 11.97264379 -1 14.52208754 -1 18 C1.95409701 16.62845496 4.44008376 15.01136276 7 13 C5.56036361 16.35915158 3.87583411 18.71624938 1 21 C-1.1328125 20.60546875 -1.1328125 20.60546875 -3 20 C-3.027193 18.41676312 -3.04648306 16.83338938 -3.0625 15.25 C-3.07410156 14.36828125 -3.08570313 13.4865625 -3.09765625 12.578125 C-3.00826198 10.2181162 -2.66912821 8.25501476 -2 6 C-3.32 6 -4.64 6 -6 6 C-6 5.34 -6 4.68 -6 4 C-4.35 4 -2.7 4 -1 4 C-0.67 2.68 -0.34 1.36 0 0 Z " fill="#313540" transform="translate(259,287)"/>
<path d="M0 0 C1.4540625 0.0309375 1.4540625 0.0309375 2.9375 0.0625 C3.2675 1.3825 3.5975 2.7025 3.9375 4.0625 C1.9575 3.4025 -0.0225 2.7425 -2.0625 2.0625 C-0.32085971 5.19460468 -0.32085971 5.19460468 2.5625 6.4375 C3.738125 7.241875 3.738125 7.241875 4.9375 8.0625 C5.3125 10.6875 5.3125 10.6875 4.9375 13.0625 C3.9375 14.0625 3.9375 14.0625 1.87109375 14.16015625 C1.04738281 14.14855469 0.22367187 14.13695312 -0.625 14.125 C-1.45128906 14.11597656 -2.27757812 14.10695313 -3.12890625 14.09765625 C-3.76699219 14.08605469 -4.40507812 14.07445312 -5.0625 14.0625 C-5.0625 12.7425 -5.0625 11.4225 -5.0625 10.0625 C-4.4025 10.0625 -3.7425 10.0625 -3.0625 10.0625 C-2.7325 10.7225 -2.4025 11.3825 -2.0625 12.0625 C-0.03786745 12.71463292 -0.03786745 12.71463292 1.9375 13.0625 C0.60417905 9.06253714 -1.5582827 8.22467663 -5.0625 6.0625 C-3.98897059 0.08140756 -3.98897059 0.08140756 0 0 Z " fill="#272B37" transform="translate(353.0625,249.9375)"/>
<path d="M0 0 C0.99 0 1.98 0 3 0 C3.84098656 4.01804691 4.05404945 7.01803543 3 11 C6.8665284 7.777893 7.88059018 4.85077588 9 0 C10.1171875 1.734375 10.1171875 1.734375 11 4 C10.3203125 6.140625 10.3203125 6.140625 9.125 8.25 C8.73570312 8.95640625 8.34640625 9.6628125 7.9453125 10.390625 C7.63335937 10.92171875 7.32140625 11.4528125 7 12 C3.53058454 11.54177532 0.32604951 11.10868317 -3 10 C-2.25 2.25 -2.25 2.25 0 0 Z " fill="#292D39" transform="translate(141,295)"/>
<path d="M0 0 C1.4540625 0.0309375 1.4540625 0.0309375 2.9375 0.0625 C3.2675 1.3825 3.5975 2.7025 3.9375 4.0625 C3.2775 4.0625 2.6175 4.0625 1.9375 4.0625 C1.9375 3.4025 1.9375 2.7425 1.9375 2.0625 C0.6175 2.0625 -0.7025 2.0625 -2.0625 2.0625 C-2.0625 3.0525 -2.0625 4.0425 -2.0625 5.0625 C-0.0825 5.7225 1.8975 6.3825 3.9375 7.0625 C4.5625 9.4375 4.5625 9.4375 4.9375 12.0625 C2.9375 14.0625 2.9375 14.0625 0.9921875 14.2578125 C-1.02604167 14.19270833 -3.04427083 14.12760417 -5.0625 14.0625 C-5.3925 12.7425 -5.7225 11.4225 -6.0625 10.0625 C-5.0725 10.0625 -4.0825 10.0625 -3.0625 10.0625 C-3.0625 11.0525 -3.0625 12.0425 -3.0625 13.0625 C-1.7425 12.7325 -0.4225 12.4025 0.9375 12.0625 C0.9375 11.4025 0.9375 10.7425 0.9375 10.0625 C-1.02397874 8.67311923 -3.02416576 7.3364589 -5.0625 6.0625 C-3.98897059 0.08140756 -3.98897059 0.08140756 0 0 Z " fill="#272B37" transform="translate(376.0625,249.9375)"/>
<path d="M0 0 C1.65 0 3.3 0 5 0 C5 6.27 5 12.54 5 19 C5.66 19 6.32 19 7 19 C7 19.66 7 20.32 7 21 C4.36 21 1.72 21 -1 21 C-1 20.34 -1 19.68 -1 19 C-0.01 19 0.98 19 2 19 C2 13.39 2 7.78 2 2 C1.01 1.67 0.02 1.34 -1 1 C-0.67 0.67 -0.34 0.34 0 0 Z " fill="#242835" transform="translate(324,243)"/>
<path d="M0 0 C2.66666667 0 5.33333333 0 8 0 C8 2.97 8 5.94 8 9 C9.32 8.34 10.64 7.68 12 7 C10.68 8.65 9.36 10.3 8 12 C6.68 11.67 5.36 11.34 4 11 C4 8.36 4 5.72 4 3 C1.53721199 5.46278801 1.00228745 7.70676982 0 11 C-0.66 11 -1.32 11 -2 11 C-1.85892253 9.54119891 -1.71197585 8.08296449 -1.5625 6.625 C-1.48128906 5.81289063 -1.40007812 5.00078125 -1.31640625 4.1640625 C-1 2 -1 2 0 0 Z " fill="#2E323D" transform="translate(210,296)"/>
<path d="M0 0 C2.31 0 4.62 0 7 0 C5.7934375 1.11375 5.7934375 1.11375 4.5625 2.25 C1.55039237 5.19689664 1.55039237 5.19689664 1 9 C3.07676009 13.79722012 3.07676009 13.79722012 7 17 C7 17.66 7 18.32 7 19 C4.8125 19.5 4.8125 19.5 2 19 C-0.50303081 15.96308174 -2.24668171 12.50663659 -4 9 C-2.66536458 7.53515625 -1.33072917 6.0703125 0.00390625 4.60546875 C0.33261719 4.07566406 0.66132812 3.54585937 1 3 C0.67 2.01 0.34 1.02 0 0 Z " fill="#212532" transform="translate(78,245)"/>
<path d="M0 0 C1.65 0 3.3 0 5 0 C5.02505615 0.56509277 5.0501123 1.13018555 5.07592773 1.71240234 C5.19179956 4.26683742 5.31456537 6.8208955 5.4375 9.375 C5.47681641 10.26445312 5.51613281 11.15390625 5.55664062 12.0703125 C5.59853516 12.92109375 5.64042969 13.771875 5.68359375 14.6484375 C5.72025146 15.43395996 5.75690918 16.21948242 5.79467773 17.02880859 C5.890891 19.07523496 5.890891 19.07523496 7 21 C4.69 21 2.38 21 0 21 C0 20.34 0 19.68 0 19 C0.66 19 1.32 19 2 19 C2 13.39 2 7.78 2 2 C1.34 2 0.68 2 0 2 C0 1.34 0 0.68 0 0 Z " fill="#191E2B" transform="translate(210,243)"/>
<path d="M0 0 C0.33 1.65 0.66 3.3 1 5 C0.34 5 -0.32 5 -1 5 C-1.33 4.34 -1.66 3.68 -2 3 C-4.02463255 2.34786708 -4.02463255 2.34786708 -6 2 C-6 4.64 -6 7.28 -6 10 C-4.824375 10.2165625 -4.824375 10.2165625 -3.625 10.4375 C-1 11 -1 11 1 12 C-1 14 -1 14 -3.9375 14.3125 C-7 14 -7 14 -8.875 12.9375 C-10.64796631 9.88405803 -10.36343372 7.45262038 -10 4 C-7.87039216 -0.88557093 -4.92153042 -0.37143626 0 0 Z " fill="#181D2A" transform="translate(156,250)"/>
<path d="M0 0 C3.63 0 7.26 0 11 0 C11 0.99 11 1.98 11 3 C10.34 3 9.68 3 9 3 C8.855625 3.804375 8.71125 4.60875 8.5625 5.4375 C8 8 8 8 7 9 C5.33382885 9.04063832 3.66611905 9.042721 2 9 C1.855625 7.88625 1.71125 6.7725 1.5625 5.625 C1.21627965 2.17857953 1.21627965 2.17857953 0 0 Z " fill="#30343F" transform="translate(238,250)"/>
<path d="M0 0 C0.99 0 1.98 0 3 0 C3 0.99 3 1.98 3 3 C3.99 3 4.98 3 6 3 C6.20140476 6.62528568 5.85776765 8.86501708 4 12 C5.65 11.01 7.3 10.02 9 9 C9.33 9.66 9.66 10.32 10 11 C8.25 12.5625 8.25 12.5625 6 14 C3.75 13.6875 3.75 13.6875 2 13 C2.875 7.25 2.875 7.25 4 5 C3.01 5 2.02 5 1 5 C0.5978125 6.1446875 0.5978125 6.1446875 0.1875 7.3125 C-0.9612484 9.91229902 -1.9685876 11.10215992 -4 13 C-3.52343588 11.20763933 -3.04366502 9.41613103 -2.5625 7.625 C-2.29566406 6.62726563 -2.02882813 5.62953125 -1.75390625 4.6015625 C-1 2 -1 2 0 0 Z " fill="#2C303B" transform="translate(307,294)"/>
<path d="M0 0 C0.99 0 1.98 0 3 0 C3.02578125 1.13179687 3.0515625 2.26359375 3.078125 3.4296875 C3.13439626 4.91149743 3.19174382 6.39326677 3.25 7.875 C3.26417969 8.62136719 3.27835937 9.36773437 3.29296875 10.13671875 C3.35986341 12.57138381 3.35986341 12.57138381 4 16 C5.32 16.66 6.64 17.32 8 18 C4.7 18 1.4 18 -2 18 C-2 17.34 -2 16.68 -2 16 C-1.34 16 -0.68 16 0 16 C0 10.72 0 5.44 0 0 Z " fill="#1B1F2D" transform="translate(89,246)"/>
<path d="M0 0 C0.66 0 1.32 0 2 0 C1.68151851 2.97249386 0.96374181 4.03839103 -1.125 6.25 C-4.6525032 8.39717586 -6.9410184 8.3183515 -11 8 C-9.75023244 4.34683329 -9.32901247 3.21934164 -6 1 C-4.33380554 0.9603287 -2.66608987 0.95615553 -1 1 C-0.67 0.67 -0.34 0.34 0 0 Z " fill="#87B8CF" transform="translate(264,143)"/>
<path d="M0 0 C2.64 0 5.28 0 8 0 C8 0.99 8 1.98 8 3 C8.99 3.66 9.98 4.32 11 5 C11 5.66 11 6.32 11 7 C9.35 7 7.7 7 6 7 C5.67 7.66 5.34 8.32 5 9 C3.02 7.35 1.04 5.7 -1 4 C-0.67 2.68 -0.34 1.36 0 0 Z " fill="#85B7CE" transform="translate(238,128)"/>
<path d="M0 0 C1.67542976 0.28604898 3.34385343 0.61781233 5 1 C5.125 8.75 5.125 8.75 4 11 C0.125 10.125 0.125 10.125 -1 9 C-1.1328125 7.1875 -1.1328125 7.1875 -1.125 5 C-1.12757813 4.278125 -1.13015625 3.55625 -1.1328125 2.8125 C-1 1 -1 1 0 0 Z " fill="#F2F0E4" transform="translate(224,252)"/>
<path d="M0 0 C1.65 0.33 3.3 0.66 5 1 C5 3.97 5 6.94 5 10 C3.68 10.33 2.36 10.66 1 11 C-1.30441554 7.54337669 -1.25860135 6.05142119 -1 2 C-0.67 1.34 -0.34 0.68 0 0 Z " fill="#F1EEE3" transform="translate(199,252)"/>
<path d="M0 0 C6.75 -0.125 6.75 -0.125 9 1 C8.61912394 3.20908114 8.07400952 4.87374847 6.9375 6.8125 C3.68445771 8.80630011 0.66141589 7.66025532 -3 7 C-2 4 -2 4 1 2 C0.67 1.34 0.34 0.68 0 0 Z " fill="#8FBCD1" transform="translate(257,120)"/>
<path d="M0 0 C0.66 0 1.32 0 2 0 C1.67 2.97 1.34 5.94 1 9 C1.763125 8.236875 2.52625 7.47375 3.3125 6.6875 C5.20833333 4.79166667 7.10416667 2.89583333 9 1 C8.67 3.31 8.34 5.62 8 8 C8.99 8.33 9.98 8.66 11 9 C6.25 10 6.25 10 4 10 C2.33034549 10.31802943 0.66321482 10.64984951 -1 11 C-1.14285714 3.57142857 -1.14285714 3.57142857 0 0 Z " fill="#222633" transform="translate(130,297)"/>
<path d="M0 0 C1.65 0 3.3 0 5 0 C5 3.96 5 7.92 5 12 C5.66 12 6.32 12 7 12 C7 12.66 7 13.32 7 14 C4.69 14 2.38 14 0 14 C0 13.34 0 12.68 0 12 C0.66 12 1.32 12 2 12 C2 8.7 2 5.4 2 2 C1.34 2 0.68 2 0 2 C0 1.34 0 0.68 0 0 Z " fill="#171C2A" transform="translate(361,250)"/>
<path d="M0 0 C2.375 -0.125 2.375 -0.125 5 0 C7 2 7 2 7.1953125 4.3828125 C7.17210937 5.28773438 7.14890625 6.19265625 7.125 7.125 C7.10695312 8.03507812 7.08890625 8.94515625 7.0703125 9.8828125 C7.04710937 10.58148438 7.02390625 11.28015625 7 12 C7.66 12 8.32 12 9 12 C9 12.66 9 13.32 9 14 C6.69 14 4.38 14 2 14 C2 13.34 2 12.68 2 12 C2.66 12 3.32 12 4 12 C3.91253716 10.56138706 3.80434652 9.12402492 3.6875 7.6875 C3.62949219 6.88699219 3.57148438 6.08648437 3.51171875 5.26171875 C2.91793306 2.63727666 2.04219706 1.69179328 0 0 Z " fill="#212531" transform="translate(166,250)"/>
<path d="M0 0 C1.98 0.495 1.98 0.495 4 1 C4 3.97 4 6.94 4 10 C2.02 10.99 2.02 10.99 0 12 C-1 11 -1 11 -1.1328125 8.75 C-1.13023437 7.8425 -1.12765625 6.935 -1.125 6 C-1.12757813 5.0925 -1.13015625 4.185 -1.1328125 3.25 C-1 1 -1 1 0 0 Z " fill="#F4F1E5" transform="translate(298,252)"/>
<path d="M0 0 C1.32 0 2.64 0 4 0 C4.05395478 1.62463842 4.09277195 3.24978541 4.125 4.875 C4.14820313 5.77992188 4.17140625 6.68484375 4.1953125 7.6171875 C4 10 4 10 2 12 C1.01 11.34 0.02 10.68 -1 10 C-1.328125 7.87109375 -1.328125 7.87109375 -1.25 5.4375 C-1.23453125 4.63183594 -1.2190625 3.82617188 -1.203125 2.99609375 C-1 1 -1 1 0 0 Z " fill="#F4F1E5" transform="translate(183,252)"/>
<path d="M0 0 C0.99 0 1.98 0 3 0 C2.35610937 2.9379382 1.70997221 5.875351 1.0625 8.8125 C0.88009766 9.64587891 0.69769531 10.47925781 0.50976562 11.33789062 C0.33251953 12.14033203 0.15527344 12.94277344 -0.02734375 13.76953125 C-0.18968506 14.50792236 -0.35202637 15.24631348 -0.51928711 16.00708008 C-1 18 -1 18 -2 21 C-2.66 21 -3.32 21 -4 21 C-3.29843593 13.84404654 -1.69214979 6.98144819 0 0 Z " fill="#3E424B" transform="translate(276,286)"/>
<path d="M0 0 C1.67542976 0.28604898 3.34385343 0.61781233 5 1 C4.38511719 1.24621094 3.77023438 1.49242187 3.13671875 1.74609375 C0.58386675 3.24420251 0.00060031 4.39048665 -1.1875 7.0625 C-2.95364238 10.95364238 -2.95364238 10.95364238 -4 12 C-6.9375 12.1875 -6.9375 12.1875 -10 12 C-10.66 11.34 -11.32 10.68 -12 10 C-11.625 7.375 -11.625 7.375 -11 5 C-9 8 -9 8 -9 10 C-7.68 10 -6.36 10 -5 10 C-4.58427734 9.04287109 -4.58427734 9.04287109 -4.16015625 8.06640625 C-3.79792969 7.24011719 -3.43570313 6.41382813 -3.0625 5.5625 C-2.70285156 4.73878906 -2.34320313 3.91507812 -1.97265625 3.06640625 C-1 1 -1 1 0 0 Z " fill="#252935" transform="translate(203,300)"/>
<path d="M0 0 C2.475 0.495 2.475 0.495 5 1 C5.06058594 1.69867188 5.12117187 2.39734375 5.18359375 3.1171875 C5.26738281 4.02726563 5.35117188 4.93734375 5.4375 5.875 C5.51871094 6.77992188 5.59992188 7.68484375 5.68359375 8.6171875 C5.86989285 11.01110861 5.86989285 11.01110861 7 13 C4.69 13 2.38 13 0 13 C0 12.34 0 11.68 0 11 C0.66 11 1.32 11 2 11 C2 7.7 2 4.4 2 1 C1.34 0.67 0.68 0.34 0 0 Z " fill="#121725" transform="translate(177,251)"/>
<path d="M0 0 C0.33 0.66 0.66 1.32 1 2 C1.66 2 2.32 2 3 2 C3.66 4.97 4.32 7.94 5 11 C3.02 11 1.04 11 -1 11 C-2.26264601 6.70700357 -1.62950412 4.12168689 0 0 Z " fill="#4B4E55" transform="translate(278,246)"/>
<path d="M0 0 C2.64 0 5.28 0 8 0 C7.67 0.66 7.34 1.32 7 2 C5.35 2 3.7 2 2 2 C4.83430453 5.2542015 6.68607774 6.5206753 11 7 C11 7.66 11 8.32 11 9 C8.03155565 9.35338623 5.84401782 9.5417682 3.265625 7.88671875 C1.79651181 6.64496832 0.39295186 5.32662082 -1 4 C-0.67 2.68 -0.34 1.36 0 0 Z " fill="#7BB1CC" transform="translate(198,144)"/>
<path d="M0 0 C2.00720923 0.28674418 4.0085944 0.61866701 6 1 C6.33 2.65 6.66 4.3 7 6 C3.625 6.625 3.625 6.625 0 7 C-0.66 6.34 -1.32 5.68 -2 5 C-1.46428571 1.46428571 -1.46428571 1.46428571 0 0 Z " fill="#6D6F73" transform="translate(311,257)"/>
<path d="M0 0 C0.66 0 1.32 0 2 0 C0.87723429 7.05909078 -0.37563401 14.03843148 -2 21 C-2.66 21 -3.32 21 -4 21 C-3.39700836 13.76410027 -1.8849413 7.00629124 0 0 Z " fill="#282C38" transform="translate(182,286)"/>
<path d="M0 0 C0.99 0.33 1.98 0.66 3 1 C2.67 1.33 2.34 1.66 2 2 C1.66863856 6.0314274 1.66863856 6.0314274 2 10 C3.84188612 12.05270463 3.84188612 12.05270463 6 13 C3.125 13.125 3.125 13.125 0 13 C-2 11 -2 11 -2.265625 8.90625 C-2.25789062 7.71515625 -2.25789062 7.71515625 -2.25 6.5 C-2.25515625 5.7059375 -2.2603125 4.911875 -2.265625 4.09375 C-2 2 -2 2 0 0 Z " fill="#191D2A" transform="translate(222,251)"/>
<path d="M0 0 C0.99 0.33 1.98 0.66 3 1 C3.06058594 1.69867188 3.12117188 2.39734375 3.18359375 3.1171875 C3.26738281 4.02726563 3.35117187 4.93734375 3.4375 5.875 C3.51871094 6.77992188 3.59992188 7.68484375 3.68359375 8.6171875 C3.86989285 11.01110861 3.86989285 11.01110861 5 13 C2.69 13 0.38 13 -2 13 C-1.67 12.34 -1.34 11.68 -1 11 C-0.7724985 9.12943209 -0.59037189 7.25314042 -0.4375 5.375 C-0.35371094 4.37210938 -0.26992188 3.36921875 -0.18359375 2.3359375 C-0.12300781 1.56507813 -0.06242187 0.79421875 0 0 Z " fill="#131826" transform="translate(302,251)"/>
<path d="M0 0 C0.99 0 1.98 0 3 0 C3 0.99 3 1.98 3 3 C3.99 3.33 4.98 3.66 6 4 C5.47731534 6.76276177 4.89130413 9.3260876 4 12 C4.66 12 5.32 12 6 12 C6 12.66 6 13.32 6 14 C4.68 14 3.36 14 2 14 C2.875 7.25 2.875 7.25 4 5 C2.68 5 1.36 5 0 5 C0 3.35 0 1.7 0 0 Z " fill="#1A1F2C" transform="translate(151,294)"/>
<path d="M0 0 C-0.8125 3.4375 -0.8125 3.4375 -2 7 C-2.99 7.33 -3.98 7.66 -5 8 C-5.99 7.01 -6.98 6.02 -8 5 C-7.1875 3.0625 -7.1875 3.0625 -6 1 C-3 0 -3 0 0 0 Z " fill="#EAE8DD" transform="translate(201,303)"/>
<path d="M0 0 C2.64 0 5.28 0 8 0 C8 0.33 8 0.66 8 1 C6.35 1 4.7 1 3 1 C4.10709491 3.06295292 4.10709491 3.06295292 6 5 C9.10197397 5.80946422 9.10197397 5.80946422 12 6 C11.67 6.66 11.34 7.32 11 8 C7.22718603 8.35095944 5.40824943 8.24849965 2.125 6.25 C0 4 0 4 0 0 Z " fill="#7FB3CD" transform="translate(216,139)"/>
<path d="M0 0 C0.99 0.33 1.98 0.66 3 1 C5.63804589 0.60602665 5.63804589 0.60602665 8 0 C7.01 0.495 7.01 0.495 6 1 C5.34786708 3.02463255 5.34786708 3.02463255 5 5 C5 4.34 5 3.68 5 3 C2.27573689 5.35277269 1.1858237 7.62496331 0 11 C-0.66 11 -1.32 11 -2 11 C-1.85957123 9.35369672 -1.71250671 7.70795821 -1.5625 6.0625 C-1.48128906 5.14597656 -1.40007812 4.22945313 -1.31640625 3.28515625 C-1 1 -1 1 0 0 Z " fill="#313540" transform="translate(124,296)"/>
<path d="M0 0 C0.33 0 0.66 0 1 0 C1.36 5.4 1.36 5.4 -0.125 7.875 C-2.86916239 9.52149743 -4.8694571 9.39964378 -8 9 C-10 6 -10 6 -9.625 3.8125 C-9.41875 3.214375 -9.2125 2.61625 -9 2 C-8.34 2 -7.68 2 -7 2 C-6.67 3.32 -6.34 4.64 -6 6 C-4.68 6 -3.36 6 -2 6 C-1.34 4.02 -0.68 2.04 0 0 Z " fill="#202431" transform="translate(110,303)"/>
<path d="M0 0 C2 2 2 2 2 5 C5.79588866 4.45773019 7.47211993 2.79872437 10 0 C8.73058503 3.91402949 7.48832306 5.79072873 4 8 C3.38125 7.67 2.7625 7.34 2.125 7 C0.08981656 5.85806765 0.08981656 5.85806765 -2 6 C-2.99 6.495 -2.99 6.495 -4 7 C-2.79618552 4.50638429 -1.54571278 2.31856917 0 0 Z " fill="#464951" transform="translate(161,300)"/>
<path d="M0 0 C3.5625 0.1875 3.5625 0.1875 5.5625 2.1875 C5.1875 5.3125 5.1875 5.3125 4.5625 8.1875 C3.5725 7.8575 2.5825 7.5275 1.5625 7.1875 C1.8925 5.2075 2.2225 3.2275 2.5625 1.1875 C-0.4075 2.5075 -3.3775 3.8275 -6.4375 5.1875 C-3.95151869 0.21553738 -3.95151869 0.21553738 0 0 Z " fill="#272B37" transform="translate(110.4375,285.8125)"/>
<path d="M0 0 C2.31 0 4.62 0 7 0 C7 5.61 7 11.22 7 17 C6.67 17 6.34 17 6 17 C6 12.05 6 7.1 6 2 C4.68 2 3.36 2 2 2 C2 3.32 2 4.64 2 6 C1.34 6 0.68 6 0 6 C0 4.02 0 2.04 0 0 Z " fill="#41444D" transform="translate(114,245)"/>
<path d="M0 0 C0.66 0 1.32 0 2 0 C2 1.32 2 2.64 2 4 C3.65 3.67 5.3 3.34 7 3 C7 3.66 7 4.32 7 5 C4.69 5.33 2.38 5.66 0 6 C-0.66 7.65 -1.32 9.3 -2 11 C-2.66 10.34 -3.32 9.68 -4 9 C-3.34 8.01 -2.68 7.02 -2 6 C-1.29835358 4.01200182 -0.62627128 2.01301483 0 0 Z " fill="#3A3E47" transform="translate(342,296)"/>
<path d="M0 0 C0.33 0 0.66 0 1 0 C1.09796875 0.62648437 1.1959375 1.25296875 1.296875 1.8984375 C1.44640625 2.71570313 1.5959375 3.53296875 1.75 4.375 C1.88921875 5.18710937 2.0284375 5.99921875 2.171875 6.8359375 C2.81749261 9.17709092 2.81749261 9.17709092 5.078125 10.2890625 C5.71234375 10.52367187 6.3465625 10.75828125 7 11 C3.625 11.1875 3.625 11.1875 0 11 C-2.30163882 7.54754176 -2.34490322 6.05261287 -2 2 C-1.34 1.34 -0.68 0.68 0 0 Z " fill="#181C2A" transform="translate(197,253)"/>
<path d="M0 0 C0.99 0 1.98 0 3 0 C3 0.66 3 1.32 3 2 C3.66 2.33 4.32 2.66 5 3 C4.02433888 4.16959987 3.044375 5.33561177 2.0625 6.5 C1.51722656 7.1496875 0.97195312 7.799375 0.41015625 8.46875 C-0.05519531 8.9740625 -0.52054687 9.479375 -1 10 C-1.33 10 -1.66 10 -2 10 C-2.1953125 3.9453125 -2.1953125 3.9453125 -2 2 C-1.34 1.34 -0.68 0.68 0 0 Z " fill="#E8E6DB" transform="translate(75,245)"/>
<path d="M0 0 C2.64 0 5.28 0 8 0 C6.125 5.75 6.125 5.75 5 8 C4.01 7.67 3.02 7.34 2 7 C2.66 5.35 3.32 3.7 4 2 C2.35 2 0.7 2 -1 2 C-0.67 1.34 -0.34 0.68 0 0 Z " fill="#2D303C" transform="translate(295,300)"/>
<path d="M0 0 C1.4540625 0.0309375 1.4540625 0.0309375 2.9375 0.0625 C2.6075 1.7125 2.2775 3.3625 1.9375 5.0625 C-0.7025 5.0625 -3.3425 5.0625 -6.0625 5.0625 C-3.64893617 0.07446809 -3.64893617 0.07446809 0 0 Z " fill="#868788" transform="translate(138.0625,249.9375)"/>
<path d="M0 0 C0 0.66 0 1.32 0 2 C-5.70690634 2.99250545 -11.21408489 3.10477512 -17 3 C-14.01868487 1.36062254 -11.26954472 0.48091923 -7.9375 -0.1875 C-7.08027344 -0.36667969 -6.22304687 -0.54585937 -5.33984375 -0.73046875 C-3 -1 -3 -1 0 0 Z " fill="#8EBCD1" transform="translate(218,132)"/>
<path d="M0 0 C0.66 0.33 1.32 0.66 2 1 C1.34 3.97 0.68 6.94 0 10 C0.66 10 1.32 10 2 10 C2 10.66 2 11.32 2 12 C-0.53524446 10.98590222 -1.77139002 10.38502734 -3.1875 8 C-3.455625 7.34 -3.72375 6.68 -4 6 C-4.33 5.34 -4.66 4.68 -5 4 C-4.01 3.67 -3.02 3.34 -2 3 C-1.34 2.01 -0.68 1.02 0 0 Z " fill="#272B37" transform="translate(330,296)"/>
<path d="M0 0 C2.33294775 -0.04241723 4.66702567 -0.04092937 7 0 C8 1 8 1 8.0625 3.5625 C8.041875 4.366875 8.02125 5.17125 8 6 C6.35 6.33 4.7 6.66 3 7 C3.66 6.67 4.32 6.34 5 6 C5 4.68 5 3.36 5 2 C3.35 2 1.7 2 0 2 C0 1.34 0 0.68 0 0 Z " fill="#1A1F2C" transform="translate(240,262)"/>
<path d="M0 0 C3.375 0.25 3.375 0.25 7 1 C8.4375 3.0625 8.4375 3.0625 9 5 C5.625 4.75 5.625 4.75 2 4 C0.5625 1.9375 0.5625 1.9375 0 0 Z " fill="#E5EDE7" transform="translate(200,146)"/>
<path d="M0 0 C4.82360189 -0.19294408 8.49646738 0.24252386 13 2 C13 2.66 13 3.32 13 4 C8.71 3.67 4.42 3.34 0 3 C0 2.01 0 1.02 0 0 Z " fill="#7CB2CC" transform="translate(207,168)"/>
<path d="M0 0 C3.06393013 -0.25532751 4.63233212 -0.21861333 7.3125 1.375 C7.869375 1.91125 8.42625 2.4475 9 3 C9 3.66 9 4.32 9 5 C5.625 4.75 5.625 4.75 2 4 C0.5625 1.9375 0.5625 1.9375 0 0 Z " fill="#E6EDE7" transform="translate(240,130)"/>
<path d="M0 0 C2.31 0.66 4.62 1.32 7 2 C7 3.32 7 4.64 7 6 C5.02 6 3.04 6 1 6 C0.67 4.02 0.34 2.04 0 0 Z " fill="#6E7073" transform="translate(316,301)"/>
<path d="M0 0 C0.33 0 0.66 0 1 0 C1.33 2.64 1.66 5.28 2 8 C4.95409701 6.62845496 7.44008376 5.01136276 10 3 C8.56036361 6.35915158 6.87583411 8.71624938 4 11 C2.68 10.67 1.36 10.34 0 10 C0 6.7 0 3.4 0 0 Z " fill="#43474F" transform="translate(256,297)"/>
<path d="M0 0 C0.66 0.33 1.32 0.66 2 1 C1.67 2.98 1.34 4.96 1 7 C-0.32 7.33 -1.64 7.66 -3 8 C-2.25 2.25 -2.25 2.25 0 0 Z " fill="#DDDCD2" transform="translate(141,297)"/>
<path d="M0 0 C2.31 0 4.62 0 7 0 C7.33 1.65 7.66 3.3 8 5 C7.34 5 6.68 5 6 5 C5.67 4.34 5.34 3.68 5 3 C2.97536745 2.34786708 2.97536745 2.34786708 1 2 C0.67 2.66 0.34 3.32 0 4 C-0.66 4 -1.32 4 -2 4 C-1.34 2.68 -0.68 1.36 0 0 Z " fill="#343842" transform="translate(149,250)"/>
<path d="M0 0 C-0.34879632 3.25543229 -1.02133261 4.01873107 -3.5625 6.25 C-4.366875 6.8275 -5.17125 7.405 -6 8 C-6.33 7.01 -6.66 6.02 -7 5 C-6.01 4.34 -5.02 3.68 -4 3 C-5.32 2.34 -6.64 1.68 -8 1 C-5.23735711 0.40267181 -2.83967231 0 0 0 Z " fill="#87B8CF" transform="translate(248,139)"/>
<path d="M0 0 C0.66 0 1.32 0 2 0 C1.75 1.8125 1.75 1.8125 1 4 C-1 5.5 -1 5.5 -3 7 C-3.79623822 9.09415804 -3.79623822 9.09415804 -4 11 C-4.66 10.67 -5.32 10.34 -6 10 C-6 8.35 -6 6.7 -6 5 C-5.195625 4.731875 -4.39125 4.46375 -3.5625 4.1875 C-2.716875 3.795625 -1.87125 3.40375 -1 3 C-0.67 2.01 -0.34 1.02 0 0 Z " fill="#1C202D" transform="translate(240,296)"/>
<path d="M0 0 C2.31 0 4.62 0 7 0 C7 1.32 7 2.64 7 4 C5.02 4 3.04 4 1 4 C0.67 2.68 0.34 1.36 0 0 Z " fill="#F0EDE2" transform="translate(238,264)"/>
<path d="M0 0 C2.475 0.495 2.475 0.495 5 1 C4.67 2.65 4.34 4.3 4 6 C2.68 5.67 1.36 5.34 0 5 C0 3.35 0 1.7 0 0 Z " fill="#E9E6DC" transform="translate(239,252)"/>
<path d="M0 0 C1.093125 0.0825 2.18625 0.165 3.3125 0.25 C1.6875 2.25 1.6875 2.25 -0.6875 4.25 C-3.9375 4.5 -3.9375 4.5 -6.6875 4.25 C-4.79150483 0.68106792 -4.16790733 0.28256999 0 0 Z " fill="#F2F4EB" transform="translate(241.6875,140.75)"/>
<path d="M0 0 C-3 2 -3 2 -6.0625 3 C-9.08055734 3.78621891 -9.08055734 3.78621891 -11 6 C-10.8125 4.1875 -10.8125 4.1875 -10 2 C-6.42504907 -0.87982158 -4.37380275 -1.37462372 0 0 Z " fill="#42464E" transform="translate(201,302)"/>
<path d="M0 0 C0.33 0.99 0.66 1.98 1 3 C-0.125 4.5625 -0.125 4.5625 -2 6 C-5.1875 5.6875 -5.1875 5.6875 -8 5 C-8 4.34 -8 3.68 -8 3 C-6.865625 2.690625 -5.73125 2.38125 -4.5625 2.0625 C-1.21224901 1.37075469 -1.21224901 1.37075469 0 0 Z " fill="#81B4CD" transform="translate(239,181)"/>
<path d="M0 0 C2.0625 0.4375 2.0625 0.4375 4 1 C3.34 1 2.68 1 2 1 C1.67 2.32 1.34 3.64 1 5 C-0.32 5 -1.64 5 -3 5 C-1.125 1.125 -1.125 1.125 0 0 Z M-5 5 C-4.01 5.495 -4.01 5.495 -3 6 C-3.99 6.495 -3.99 6.495 -5 7 C-5 6.34 -5 5.68 -5 5 Z " fill="#707175" transform="translate(238,295)"/>
<path d="M0 0 C1.2065625 0.0309375 1.2065625 0.0309375 2.4375 0.0625 C2.7675 0.7225 3.0975 1.3825 3.4375 2.0625 C3.1075 3.0525 2.7775 4.0425 2.4375 5.0625 C1.1175 5.0625 -0.2025 5.0625 -1.5625 5.0625 C-2.2225 3.7425 -2.8825 2.4225 -3.5625 1.0625 C-2.5625 0.0625 -2.5625 0.0625 0 0 Z " fill="#7D7E80" transform="translate(321.5625,295.9375)"/>
<path d="M0 0 C0.7425 0.0825 1.485 0.165 2.25 0.25 C1.25 3.25 1.25 3.25 -0.75 4.25 C-2.74960012 4.289992 -4.75047242 4.29346799 -6.75 4.25 C-3.42692308 0.31153846 -3.42692308 0.31153846 0 0 Z " fill="#F4F5EB" transform="translate(260.75,143.75)"/>
<path d="M0 0 C2.8125 -0.25 2.8125 -0.25 6 0 C7.875 2 7.875 2 9 4 C6.1875 4.25 6.1875 4.25 3 4 C1.125 2 1.125 2 0 0 Z " fill="#F9F8EC" transform="translate(219,141)"/>
<path d="M0 0 C-0.99 1.485 -0.99 1.485 -2 3 C-5.625 3.6875 -5.625 3.6875 -9 4 C-8.67 3.01 -8.34 2.02 -8 1 C-5.29120665 -0.35439668 -2.99066732 -0.06501451 0 0 Z " fill="#F3F5EB" transform="translate(263,123)"/>
<path d="M0 0 C1.32 0 2.64 0 4 0 C5.10844919 3.32534757 4.84454356 5.62182575 4 9 C2.68 9 1.36 9 0 9 C1.875 3.25 1.875 3.25 3 1 C2.01 0.67 1.02 0.34 0 0 Z " fill="#DEDCD3" transform="translate(300,299)"/>
<path d="M0 0 C1.04449911 3.13349732 0.93423645 3.98968256 0 7 C0.99 7.33 1.98 7.66 3 8 C1.35 8.33 -0.3 8.66 -2 9 C-2.6875 7.3125 -2.6875 7.3125 -3 5 C-1.5625 2.25 -1.5625 2.25 0 0 Z " fill="#131826" transform="translate(138,298)"/>
<path d="M0 0 C0.66 0.66 1.32 1.32 2 2 C3.98356483 2.71408334 5.98315437 3.38617742 8 4 C8 4.33 8 4.66 8 5 C5.36 5 2.72 5 0 5 C-0.66 3.68 -1.32 2.36 -2 1 C-1.34 0.67 -0.68 0.34 0 0 Z " fill="#363943" transform="translate(237,265)"/>
<path d="M0 0 C-0.33 0.99 -0.66 1.98 -1 3 C-2.32 3 -3.64 3 -5 3 C-5 2.01 -5 1.02 -5 0 C-5.99 -0.33 -6.98 -0.66 -8 -1 C-4.37673261 -2.2077558 -3.35853631 -1.54311128 0 0 Z " fill="#E0DED4" transform="translate(378,260)"/>
<path d="M0 0 C1.65 0 3.3 0 5 0 C4.01 2.97 3.02 5.94 2 9 C1.34 8.67 0.68 8.34 0 8 C0.185625 7.236875 0.37125 6.47375 0.5625 5.6875 C1.22819173 2.91032625 1.22819173 2.91032625 0 0 Z " fill="#343842" transform="translate(341,250)"/>
<path d="M0 0 C1.65 0 3.3 0 5 0 C4.01 2.97 3.02 5.94 2 9 C1.34 8.67 0.68 8.34 0 8 C0.185625 7.236875 0.37125 6.47375 0.5625 5.6875 C1.22819173 2.91032625 1.22819173 2.91032625 0 0 Z " fill="#343842" transform="translate(259,250)"/>
<path d="M0 0 C2.625 0.9375 2.625 0.9375 5 2 C5 2.99 5 3.98 5 5 C3.35 4.67 1.7 4.34 0 4 C0 3.34 0 2.68 0 2 C-0.66 1.67 -1.32 1.34 -2 1 C-1.34 0.67 -0.68 0.34 0 0 Z " fill="#E8E6DC" transform="translate(350,258)"/>
<path d="M0 0 C0.66 0 1.32 0 2 0 C2 1.65 2 3.3 2 5 C0.35 5.33 -1.3 5.66 -3 6 C-3.66 4.68 -4.32 3.36 -5 2 C-2.525 2.495 -2.525 2.495 0 3 C0 2.01 0 1.02 0 0 Z " fill="#D3D1C9" transform="translate(356,250)"/>
<path d="M0 0 C0.66 0 1.32 0 2 0 C2.33 2.31 2.66 4.62 3 7 C1.68 7 0.36 7 -1 7 C-0.67 4.69 -0.34 2.38 0 0 Z " fill="#E7E4DA" transform="translate(279,249)"/>
<path d="M0 0 C0 0.66 0 1.32 0 2 C-2.64 2.66 -5.28 3.32 -8 4 C-8 3.01 -8 2.02 -8 1 C-3.375 -1.125 -3.375 -1.125 0 0 Z " fill="#8AB9D0" transform="translate(188,172)"/>
<path d="M0 0 C-0.33 1.32 -0.66 2.64 -1 4 C-3.31 4.33 -5.62 4.66 -8 5 C-8 4.34 -8 3.68 -8 3 C-2.25 0 -2.25 0 0 0 Z " fill="#2D313C" transform="translate(340,265)"/>
<path d="M0 0 C-0.33 1.32 -0.66 2.64 -1 4 C-3.31 4.33 -5.62 4.66 -8 5 C-8 4.34 -8 3.68 -8 3 C-2.25 0 -2.25 0 0 0 Z " fill="#2D313C" transform="translate(258,265)"/>
<path d="M0 0 C0.66 0.66 1.32 1.32 2 2 C1.34 3.32 0.68 4.64 0 6 C0.66 6 1.32 6 2 6 C2 6.66 2 7.32 2 8 C0.68 8 -0.64 8 -2 8 C-1.125 1.125 -1.125 1.125 0 0 Z " fill="#2E323D" transform="translate(155,300)"/>
<path d="M0 0 C0.5775 0.37125 1.155 0.7425 1.75 1.125 C4 2.29166667 4 2.29166667 6.25 1.125 C6.8275 0.75375 7.405 0.3825 8 0 C6.68 1.65 5.36 3.3 4 5 C2.68 4.67 1.36 4.34 0 4 C0 2.68 0 1.36 0 0 Z " fill="#494B53" transform="translate(214,303)"/>
<path d="M0 0 C0.33 0 0.66 0 1 0 C1.125 6.625 1.125 6.625 0 10 C-0.66 10 -1.32 10 -2 10 C-1.125 2.25 -1.125 2.25 0 0 Z " fill="#232733" transform="translate(274,297)"/>
<path d="M0 0 C4 4.875 4 4.875 4 6 C1.69 6 -0.62 6 -3 6 C-3 5.34 -3 4.68 -3 4 C-2.34 3.67 -1.68 3.34 -1 3 C-0.67 2.01 -0.34 1.02 0 0 Z " fill="#343842" transform="translate(274,258)"/>
<path d="M0 0 C1.4540625 0.0309375 1.4540625 0.0309375 2.9375 0.0625 C2.6075 0.7225 2.2775 1.3825 1.9375 2.0625 C0.6175 2.0625 -0.7025 2.0625 -2.0625 2.0625 C-2.3925 2.7225 -2.7225 3.3825 -3.0625 4.0625 C-4.0525 4.3925 -5.0425 4.7225 -6.0625 5.0625 C-3.64893617 0.07446809 -3.64893617 0.07446809 0 0 Z " fill="#3C3F49" transform="translate(201.0625,249.9375)"/>
<path d="M0 0 C0.66 0 1.32 0 2 0 C2.33 1.98 2.66 3.96 3 6 C2.34 6 1.68 6 1 6 C1 5.34 1 4.68 1 4 C0.01 4.33 -0.98 4.66 -2 5 C-1.34 3.35 -0.68 1.7 0 0 Z " fill="#EAE8DD" transform="translate(247,300)"/>
<path d="M0 0 C2.625 0.375 2.625 0.375 5 1 C4.071875 1.3403125 4.071875 1.3403125 3.125 1.6875 C0.38589791 3.37929835 -0.05024472 4.99244161 -1 8 C-1.33 8 -1.66 8 -2 8 C-2.125 5.125 -2.125 5.125 -2 2 C-1.34 1.34 -0.68 0.68 0 0 Z " fill="#1A1E2B" transform="translate(203,300)"/>
<path d="M0 0 C1.32 0 2.64 0 4 0 C4 0.66 4 1.32 4 2 C4.66 2.33 5.32 2.66 6 3 C5.34 3.66 4.68 4.32 4 5 C2.68 4.34 1.36 3.68 0 3 C0 2.01 0 1.02 0 0 Z " fill="#EAE8DD" transform="translate(374,252)"/>
<path d="M0 0 C0.99 0 1.98 0 3 0 C2.8125 1.875 2.8125 1.875 2 4 C-0.5625 5.25 -0.5625 5.25 -3 6 C-1.125 1.125 -1.125 1.125 0 0 Z " fill="#E1DFD5" transform="translate(152,299)"/>
<path d="M0 0 C3 1 3 1 4 3 C1.69 3.33 -0.62 3.66 -3 4 C-2.67 3.01 -2.34 2.02 -2 1 C-1.34 0.67 -0.68 0.34 0 0 Z " fill="#8EBBD0" transform="translate(192,199)"/>
<path d="M0 0 C2.64 0.33 5.28 0.66 8 1 C8 1.66 8 2.32 8 3 C5.36 2.67 2.72 2.34 0 2 C0 1.34 0 0.68 0 0 Z " fill="#79B0CB" transform="translate(222,199)"/>
</svg>
